<?xml version="1.0" standalone="no"?>
<!DOCTYPE svg PUBLIC "-//W3C//DTD SVG 20010904//EN"
 "http://www.w3.org/TR/2001/REC-SVG-20010904/DTD/svg10.dtd">
<svg version="1.0" xmlns="http://www.w3.org/2000/svg"
 width="2664.000000pt" height="2664.000000pt" viewBox="0 0 2664.000000 2664.000000"
 preserveAspectRatio="xMidYMid meet">
<metadata>
Created by potrace 1.11, written by Peter Selinger 2001-2013
</metadata>
<g transform="translate(0.000000,2664.000000) scale(0.100000,-0.100000)"
fill="#000000" stroke="none">
<path d="M12935 26605 c-82 -20 -136 -45 -220 -101 -157 -103 -270 -235 -525
-614 -66 -99 -228 -321 -240 -330 -4 -3 -20 -23 -36 -45 -64 -89 -327 -407
-474 -575 -27 -30 -58 -66 -70 -80 -160 -187 -656 -684 -840 -842 -30 -26 -68
-59 -85 -73 -16 -14 -61 -52 -100 -83 -38 -31 -72 -60 -75 -63 -3 -3 -57 -45
-120 -92 -63 -48 -120 -90 -125 -95 -24 -20 -262 -176 -362 -238 -205 -127
-510 -287 -668 -351 -218 -88 -545 -191 -755 -238 -8 -2 -37 -9 -65 -15 -27
-6 -61 -14 -75 -16 -13 -3 -54 -11 -90 -19 -36 -8 -88 -17 -116 -20 -27 -4
-56 -8 -64 -11 -21 -5 -185 -23 -305 -31 -134 -10 -614 -10 -745 0 -181 15
-181 15 -330 38 -36 6 -78 13 -95 15 -16 3 -37 7 -45 10 -8 3 -28 8 -45 10
-53 8 -276 65 -415 106 -320 95 -610 224 -905 404 -119 72 -127 78 -139 87 -6
4 -56 38 -111 76 -55 38 -106 75 -113 81 -17 15 -115 60 -142 65 -12 2 -31 7
-43 11 -31 10 -177 6 -230 -6 -142 -31 -281 -111 -371 -212 -55 -63 -110 -159
-119 -213 -3 -17 -20 -100 -36 -185 -17 -85 -33 -168 -36 -185 -2 -16 -18
-106 -35 -200 -17 -93 -33 -190 -36 -215 -3 -25 -7 -52 -9 -60 -3 -8 -14 -78
-25 -155 -11 -76 -22 -151 -25 -165 -2 -14 -6 -43 -9 -65 -3 -22 -11 -74 -17
-115 -16 -114 -18 -131 -24 -185 -3 -27 -8 -61 -10 -75 -2 -14 -7 -50 -10 -80
-3 -30 -8 -66 -10 -80 -2 -14 -9 -70 -15 -125 -6 -55 -13 -116 -15 -135 -2
-19 -7 -64 -10 -100 -3 -36 -8 -76 -10 -90 -2 -14 -7 -59 -10 -100 -4 -41 -8
-86 -10 -100 -2 -14 -7 -64 -10 -112 -3 -49 -8 -101 -9 -116 -2 -15 -7 -75
-11 -132 -4 -58 -8 -121 -10 -140 -3 -32 -7 -79 -20 -305 -3 -38 -7 -126 -11
-195 -3 -69 -7 -159 -9 -200 -28 -552 -23 -1595 10 -2180 3 -58 8 -143 10
-190 8 -140 15 -262 20 -310 2 -25 7 -85 10 -135 3 -49 8 -103 10 -120 2 -16
7 -66 10 -110 7 -81 11 -125 20 -225 12 -126 16 -157 21 -205 3 -27 8 -67 10
-90 2 -22 6 -59 9 -82 3 -24 7 -62 10 -85 2 -24 7 -65 10 -93 3 -27 8 -61 10
-75 2 -14 7 -49 10 -79 4 -30 8 -61 10 -70 1 -9 6 -41 9 -72 4 -31 9 -67 11
-80 3 -12 7 -45 10 -73 3 -28 10 -78 15 -111 5 -33 12 -78 15 -100 4 -22 15
-96 26 -165 11 -69 22 -138 25 -155 4 -27 31 -179 55 -315 6 -30 12 -68 15
-85 12 -72 60 -317 80 -410 2 -11 8 -42 13 -70 6 -27 19 -93 31 -145 11 -52
25 -115 30 -140 14 -69 69 -310 81 -355 6 -22 13 -51 16 -65 5 -32 104 -429
133 -535 70 -260 90 -332 204 -722 110 -377 325 -1018 499 -1488 78 -211 236
-623 258 -670 5 -11 49 -118 99 -239 50 -120 99 -237 109 -260 10 -22 47 -106
81 -186 35 -80 82 -187 106 -238 24 -52 44 -95 44 -97 0 -1 26 -58 58 -126 33
-68 76 -162 98 -209 43 -93 400 -805 456 -910 20 -36 49 -90 65 -120 115 -214
135 -251 183 -335 12 -22 42 -74 65 -115 53 -95 78 -139 125 -220 21 -36 47
-81 57 -100 31 -53 281 -470 307 -510 13 -19 74 -116 137 -215 166 -263 494
-753 615 -920 8 -11 46 -65 85 -120 78 -109 231 -317 239 -325 3 -3 21 -27 40
-55 19 -27 40 -57 47 -65 6 -8 77 -99 156 -201 291 -376 658 -821 883 -1069
296 -328 379 -415 669 -705 290 -290 362 -360 550 -531 103 -94 283 -253 326
-289 13 -11 56 -47 94 -80 39 -33 90 -76 114 -95 24 -19 48 -40 55 -45 6 -6
61 -50 121 -98 61 -49 119 -96 130 -105 11 -9 112 -85 225 -169 113 -84 210
-157 215 -161 70 -57 622 -428 710 -478 11 -6 91 -55 178 -108 87 -53 160 -96
162 -96 1 0 36 -20 77 -45 42 -25 80 -45 85 -45 6 0 16 -7 23 -15 11 -13 60
-15 334 -15 l322 0 105 71 c492 337 1135 817 1585 1184 117 95 336 277 344
285 3 3 34 30 70 60 36 30 67 57 70 60 3 3 52 46 110 95 599 515 1281 1184
1825 1790 50 55 92 102 95 105 3 3 34 39 70 80 36 41 67 77 70 80 3 3 32 36
65 75 33 38 65 75 70 81 11 11 79 92 107 128 10 11 23 28 31 36 139 155 601
754 862 1120 94 132 469 690 554 825 232 368 507 835 674 1145 23 41 51 93 63
115 126 225 480 940 620 1250 12 28 37 82 54 120 18 39 55 122 82 185 28 63
58 133 68 155 25 55 178 427 227 550 22 55 44 109 48 120 4 11 9 25 11 30 1 6
14 39 29 75 187 461 484 1338 670 1980 112 386 304 1124 350 1345 9 44 18 87
20 95 6 24 65 293 69 315 2 11 7 31 10 45 3 14 8 36 10 50 2 14 16 79 29 145
14 66 28 140 32 165 4 24 8 47 10 50 2 3 6 23 9 45 4 22 8 47 11 55 2 8 6 32
9 52 3 21 10 57 15 80 5 24 12 61 16 83 8 55 13 84 35 210 10 61 21 128 25
150 3 22 15 99 26 170 25 159 24 155 44 290 20 145 22 160 31 230 3 33 8 67 9
75 2 9 6 43 10 75 4 33 9 68 11 77 1 9 6 48 9 85 4 37 9 76 10 85 2 9 6 48 10
85 3 37 8 79 10 93 2 14 7 57 11 95 3 39 8 77 9 85 1 8 6 49 9 90 4 41 9 91
11 110 3 19 7 69 10 110 3 41 8 91 10 110 2 19 7 76 10 125 4 50 9 106 10 125
11 110 19 264 18 323 -3 130 -65 266 -171 375 -141 145 -293 209 -475 198
-272 -16 -494 -193 -575 -457 -21 -67 -29 -123 -37 -264 -3 -44 -7 -102 -10
-130 -2 -27 -7 -90 -10 -140 -4 -49 -8 -101 -10 -115 -2 -14 -7 -59 -10 -100
-7 -96 -14 -166 -20 -210 -2 -19 -7 -64 -10 -100 -4 -36 -8 -76 -10 -90 -2
-14 -6 -55 -10 -92 -3 -37 -7 -75 -9 -85 -2 -10 -7 -47 -11 -83 -3 -36 -8 -76
-10 -90 -3 -14 -7 -47 -10 -75 -3 -27 -8 -61 -10 -75 -5 -31 -22 -159 -30
-220 -11 -81 -14 -101 -39 -260 -8 -52 -17 -115 -21 -140 -3 -25 -10 -67 -15
-95 -5 -27 -12 -66 -15 -85 -3 -19 -7 -46 -10 -60 -3 -14 -7 -40 -10 -57 -8
-51 -14 -84 -25 -143 -6 -30 -13 -71 -16 -90 -3 -19 -14 -78 -24 -130 -11 -52
-22 -111 -25 -130 -4 -19 -26 -132 -51 -250 -24 -118 -46 -224 -49 -235 -2
-11 -20 -92 -40 -180 -20 -88 -38 -171 -41 -185 -3 -14 -7 -33 -10 -42 -3 -9
-6 -25 -9 -35 -2 -10 -17 -74 -35 -143 -18 -69 -33 -132 -35 -140 -2 -8 -26
-105 -55 -215 -28 -110 -53 -207 -55 -215 -22 -86 -157 -551 -221 -760 -89
-287 -293 -898 -334 -995 -4 -11 -36 -96 -70 -190 -105 -287 -403 -1026 -449
-1113 -5 -9 -45 -98 -89 -197 -44 -99 -103 -227 -130 -285 -27 -58 -71 -150
-97 -205 -62 -132 -280 -567 -351 -702 -52 -99 -73 -137 -157 -292 -150 -278
-364 -645 -556 -956 -133 -215 -89 -148 -333 -514 -112 -167 -207 -311 -213
-320 -5 -9 -12 -18 -15 -21 -3 -3 -57 -77 -120 -165 -143 -200 -352 -479 -362
-483 -4 -2 -8 -10 -8 -17 0 -7 -4 -15 -8 -17 -5 -1 -66 -75 -137 -163 -129
-160 -385 -467 -450 -539 -11 -12 -49 -56 -85 -96 -36 -41 -72 -81 -80 -90 -8
-9 -49 -54 -90 -101 -41 -46 -84 -93 -95 -105 -11 -12 -76 -81 -145 -155 -284
-304 -833 -841 -1145 -1120 -251 -224 -466 -410 -665 -574 -58 -48 -116 -96
-128 -107 -147 -124 -714 -560 -889 -684 -23 -16 -86 -61 -140 -100 -54 -39
-123 -88 -153 -109 -30 -21 -69 -49 -86 -62 l-31 -23 -177 110 c-220 137 -615
401 -696 467 -8 6 -80 60 -160 119 -202 150 -630 497 -680 553 -8 9 -27 25
-41 37 -15 11 -62 52 -105 91 -44 39 -89 80 -101 90 -189 164 -687 661 -1028
1027 -11 11 -315 355 -364 411 -140 159 -471 566 -612 751 -127 166 -125 164
-262 353 -70 97 -135 185 -143 196 -134 181 -531 780 -758 1143 -116 185 -426
708 -426 718 0 2 -10 21 -23 42 -22 35 -45 75 -118 210 -18 31 -35 62 -39 67
-4 6 -25 44 -47 85 -22 41 -70 129 -105 195 -154 285 -418 804 -533 1050 -95
203 -265 575 -265 581 0 2 -12 29 -26 61 -44 98 -51 113 -124 288 -131 310
-365 912 -429 1102 -11 32 -40 117 -66 188 -128 361 -295 886 -414 1305 -39
137 -153 556 -157 580 -3 14 -8 34 -11 45 -4 11 -8 25 -9 30 -1 6 -13 57 -28
115 -14 58 -28 114 -30 125 -2 11 -14 58 -25 105 -12 47 -23 94 -25 105 -7 38
-56 260 -66 300 -13 52 -110 531 -116 570 -2 17 -6 41 -9 55 -3 14 -10 52 -16
85 -5 33 -12 71 -15 85 -13 70 -45 259 -50 290 -3 19 -7 46 -9 60 -3 14 -7 39
-9 55 -8 51 -18 119 -22 140 -2 11 -6 40 -9 65 -3 25 -7 56 -10 70 -2 14 -7
45 -10 70 -3 25 -10 72 -15 105 -12 80 -18 130 -25 191 -3 28 -7 60 -10 71 -2
12 -6 50 -9 85 -3 34 -8 74 -10 88 -2 14 -7 57 -11 95 -4 39 -8 77 -10 85 -1
8 -6 51 -10 95 -3 44 -8 94 -10 110 -5 40 -13 125 -20 210 -3 39 -8 95 -10
125 -10 116 -15 178 -20 270 -4 52 -8 115 -10 140 -2 25 -7 106 -11 180 -3 74
-8 160 -9 190 -26 471 -25 1669 0 2075 2 33 7 114 10 180 3 66 8 154 10 195
11 154 16 226 20 275 5 50 14 162 20 245 4 57 15 175 20 220 2 19 7 64 10 100
3 36 8 81 10 100 3 19 11 96 20 170 17 148 24 210 30 255 11 85 27 203 30 225
2 14 6 45 10 70 4 25 8 56 10 70 2 14 6 43 10 65 3 22 8 56 10 75 2 19 7 52
10 73 l7 37 36 -19 c112 -60 597 -247 692 -266 8 -2 27 -8 43 -14 15 -6 38
-13 50 -15 12 -3 83 -21 157 -40 136 -36 452 -100 545 -111 28 -3 61 -8 75
-10 14 -3 48 -7 75 -11 28 -3 61 -7 75 -10 14 -2 57 -6 95 -9 39 -3 88 -7 110
-10 206 -21 716 -21 965 0 102 8 215 20 290 30 19 3 55 7 80 10 25 3 56 8 70
10 14 3 43 7 65 10 22 3 54 7 70 11 17 3 75 14 130 24 116 22 100 18 280 63
144 36 181 47 320 90 95 30 331 113 360 126 11 6 76 33 145 61 235 97 563 265
825 423 228 137 651 434 806 565 13 11 69 57 124 102 118 98 262 224 379 334
206 192 599 599 712 736 16 19 34 40 40 45 36 32 408 486 530 645 27 36 52 67
55 70 3 3 36 46 73 95 38 50 71 91 75 93 4 1 38 -39 76 -89 39 -50 99 -128
135 -173 36 -45 79 -100 95 -121 46 -59 165 -206 199 -246 17 -19 42 -49 55
-65 20 -24 170 -199 206 -240 26 -31 177 -197 235 -259 108 -117 479 -485 575
-570 50 -44 97 -87 105 -96 31 -32 330 -278 464 -382 232 -180 503 -363 746
-505 104 -61 437 -231 540 -276 36 -15 85 -37 109 -48 234 -104 760 -278 951
-314 14 -2 32 -7 40 -11 8 -3 33 -9 55 -13 22 -4 86 -17 143 -29 100 -20 130
-26 195 -36 17 -3 43 -7 57 -10 34 -6 76 -13 130 -20 25 -3 61 -7 80 -10 143
-19 229 -26 470 -40 244 -14 678 -4 860 20 19 2 64 7 100 10 36 4 76 8 90 10
14 2 45 7 70 10 25 3 70 10 100 15 30 5 71 11 90 14 19 3 46 8 60 11 14 3 41
8 60 11 19 3 82 17 140 31 58 13 113 26 122 28 117 25 519 153 621 199 31 14
58 25 60 25 10 -1 180 72 258 112 l57 28 6 -32 c3 -18 8 -43 11 -57 3 -14 7
-45 10 -70 3 -25 7 -56 10 -70 2 -14 7 -45 10 -70 3 -25 8 -56 10 -70 2 -14 9
-63 15 -110 16 -123 21 -162 25 -190 2 -14 7 -54 10 -90 4 -36 9 -73 10 -82 2
-9 7 -49 10 -89 4 -40 8 -80 10 -89 2 -9 6 -50 10 -91 3 -41 8 -87 10 -104 3
-16 7 -59 10 -95 9 -114 15 -184 19 -235 3 -27 8 -86 11 -130 3 -44 8 -109 11
-145 6 -72 11 -154 19 -305 3 -55 8 -122 11 -150 19 -176 124 -360 265 -466
41 -31 155 -87 189 -94 14 -3 38 -7 53 -11 56 -12 173 -5 250 15 288 75 488
307 490 569 0 71 -7 218 -18 352 -3 30 -7 96 -11 145 -3 50 -7 106 -9 125 -2
19 -6 78 -10 130 -3 52 -8 106 -10 120 -2 14 -6 63 -10 110 -3 47 -8 96 -10
110 -2 14 -7 57 -10 96 -3 39 -7 80 -9 90 -2 10 -7 51 -10 89 -4 39 -9 81 -11
95 -2 14 -7 52 -10 85 -3 33 -7 76 -10 95 -3 19 -7 53 -9 75 -5 34 -12 89 -32
240 -2 17 -6 52 -10 80 -3 27 -7 52 -9 55 -1 3 -6 36 -10 75 -4 38 -8 72 -10
75 -1 3 -6 28 -9 55 -12 86 -47 312 -62 395 -2 14 -7 41 -10 60 -3 19 -7 46
-10 60 -44 258 -43 250 -48 276 -2 12 -7 38 -10 59 -27 170 -70 347 -99 405
-33 69 -128 178 -187 215 -144 91 -258 128 -394 127 -138 -1 -211 -29 -361
-136 -308 -221 -655 -406 -995 -529 -164 -60 -504 -155 -612 -171 -21 -3 -58
-10 -83 -16 -25 -6 -62 -13 -83 -15 -20 -3 -48 -8 -62 -10 -70 -13 -130 -20
-285 -33 -178 -14 -650 -7 -805 13 -19 2 -57 6 -85 9 -83 8 -241 32 -400 62
-333 61 -771 206 -1102 365 -68 32 -125 59 -127 59 -6 0 -272 147 -314 174
-23 14 -44 26 -47 26 -3 0 -18 8 -33 19 -15 10 -94 63 -177 117 -126 83 -401
282 -450 327 -8 6 -20 17 -27 22 -18 14 -177 147 -211 177 -139 122 -226 205
-424 403 -125 127 -251 255 -278 285 -93 103 -192 215 -256 290 -35 41 -66 77
-69 80 -3 3 -35 41 -70 85 -35 44 -67 82 -70 85 -44 39 -414 528 -570 755
-132 192 -144 209 -150 215 -3 3 -29 34 -59 70 -137 164 -274 260 -423 295
-75 18 -233 18 -303 0z"/>
<path d="M12994 23688 c-120 -162 -373 -471 -469 -574 -5 -6 -39 -44 -75 -84
-321 -361 -710 -728 -1164 -1097 -171 -139 -635 -459 -797 -551 -19 -10 -77
-44 -131 -75 -222 -128 -536 -276 -793 -374 -140 -54 -405 -140 -485 -158 -8
-2 -51 -13 -96 -24 -45 -12 -90 -23 -100 -25 -149 -31 -276 -56 -304 -61 -19
-3 -46 -7 -60 -10 -14 -2 -45 -7 -70 -10 -25 -4 -56 -8 -70 -10 -14 -2 -54 -6
-90 -10 -36 -4 -76 -8 -90 -10 -171 -25 -773 -25 -985 0 -22 3 -62 7 -90 10
-135 13 -331 43 -462 70 -43 9 -89 19 -103 21 -54 10 -310 76 -405 105 -228
70 -413 140 -587 224 l-48 23 -1 -21 c0 -12 -2 -31 -4 -42 -3 -11 -7 -45 -11
-75 -3 -30 -8 -63 -10 -74 -2 -10 -6 -44 -9 -75 -4 -31 -8 -63 -10 -71 -2 -8
-7 -46 -11 -85 -3 -38 -8 -72 -9 -75 -2 -3 -6 -33 -10 -67 -3 -34 -8 -71 -10
-82 -2 -11 -6 -47 -10 -80 -3 -33 -7 -68 -9 -78 -2 -10 -7 -49 -10 -88 -4 -38
-9 -81 -11 -95 -5 -37 -21 -200 -30 -315 -3 -33 -7 -98 -10 -145 -3 -47 -8
-112 -10 -145 -9 -131 -17 -254 -20 -330 -12 -294 -17 -418 -20 -555 -6 -201
-6 -863 0 -1050 6 -207 15 -451 20 -550 4 -79 7 -121 21 -355 3 -49 7 -108 9
-130 2 -22 6 -80 10 -130 4 -49 8 -108 10 -130 8 -100 16 -184 21 -225 11
-101 14 -128 19 -185 9 -98 16 -156 25 -230 5 -38 12 -95 15 -125 4 -30 8 -66
10 -80 2 -14 7 -50 10 -80 6 -56 8 -71 20 -150 12 -79 14 -94 20 -140 5 -39
24 -162 41 -268 3 -17 7 -47 9 -65 3 -17 6 -41 9 -52 2 -11 7 -40 11 -65 4
-25 9 -54 11 -65 2 -11 11 -60 19 -110 9 -49 27 -151 41 -225 15 -74 28 -146
30 -160 4 -22 31 -152 39 -190 12 -57 47 -219 51 -240 3 -14 10 -45 15 -70 6
-25 12 -52 14 -60 50 -230 189 -773 265 -1035 33 -115 63 -219 65 -229 2 -11
11 -40 19 -65 8 -25 36 -113 62 -196 67 -214 113 -357 123 -380 5 -11 18 -51
31 -90 12 -38 28 -86 35 -105 8 -19 39 -107 70 -195 103 -289 308 -808 420
-1060 25 -56 34 -78 69 -158 18 -41 63 -140 111 -242 20 -44 51 -109 67 -145
40 -86 288 -582 331 -662 19 -35 56 -103 82 -153 62 -117 103 -192 188 -345
39 -69 84 -150 100 -180 83 -150 434 -740 516 -865 14 -22 31 -49 38 -60 97
-160 442 -678 455 -683 4 -2 8 -8 8 -13 0 -14 501 -710 544 -755 6 -6 18 -22
26 -34 8 -12 20 -28 25 -34 6 -6 33 -40 60 -76 27 -36 55 -72 62 -80 6 -8 62
-78 124 -155 96 -120 145 -179 292 -355 79 -95 272 -315 377 -430 14 -15 68
-74 120 -131 258 -284 916 -919 1189 -1148 30 -25 59 -50 65 -56 36 -36 358
-291 517 -410 256 -191 535 -381 689 -468 19 -10 53 -30 75 -43 l41 -23 89 51
c230 130 682 447 975 682 147 118 410 338 456 381 17 17 64 59 105 95 345 305
853 818 1174 1185 38 44 72 82 76 85 8 7 244 283 294 344 22 27 54 65 70 85
319 378 800 1028 1143 1546 84 127 156 235 160 240 21 26 321 511 421 680 62
105 133 223 157 263 24 40 44 74 44 77 0 2 14 28 31 57 28 47 131 232 209 373
462 843 847 1687 1157 2535 119 327 331 964 378 1140 2 8 11 40 20 70 9 30 18
63 20 73 2 9 6 21 9 25 3 5 7 19 10 33 7 36 14 60 26 99 12 41 169 638 174
666 2 11 13 57 24 104 22 92 72 313 78 345 2 11 6 31 9 45 17 74 13 57 69 335
41 205 94 500 111 610 3 22 12 78 20 125 8 47 17 105 20 130 3 25 8 52 10 60
2 8 7 40 10 70 3 30 8 62 10 70 2 8 7 40 10 70 3 30 8 66 10 80 7 41 17 113
20 150 2 19 6 55 10 80 3 25 8 61 10 80 6 60 35 333 40 370 6 48 13 122 20
205 3 39 8 90 10 115 5 48 11 118 20 245 3 44 8 105 10 135 4 48 10 150 20
340 3 54 11 254 21 500 12 297 5 1161 -11 1520 -3 63 -7 158 -10 210 -2 53 -6
127 -9 165 -3 39 -8 121 -11 183 -4 62 -8 121 -10 130 -2 10 -6 63 -9 119 -4
55 -8 109 -10 119 -2 11 -7 55 -10 99 -4 44 -11 114 -16 155 -12 101 -19 156
-25 210 -3 25 -7 61 -10 80 -3 19 -7 54 -10 78 -3 23 -7 61 -10 85 -6 46 -34
257 -40 297 -2 14 -6 48 -10 75 -3 28 -8 59 -10 70 -2 11 -4 25 -4 31 -1 6
-28 -2 -63 -20 -138 -69 -561 -222 -694 -251 -10 -2 -71 -17 -134 -33 -63 -17
-140 -35 -170 -41 -30 -6 -66 -14 -80 -17 -14 -3 -36 -7 -50 -9 -14 -2 -36 -7
-49 -9 -30 -7 -281 -43 -346 -51 -200 -22 -340 -29 -610 -29 -252 0 -426 9
-575 30 -19 3 -55 7 -80 10 -25 2 -56 6 -70 8 -68 10 -117 17 -140 21 -32 7
-45 9 -155 30 -276 51 -701 181 -985 300 -206 86 -475 219 -669 331 -20 11
-53 31 -75 43 -305 175 -726 479 -1081 781 -99 83 -120 102 -259 229 -39 36
-175 169 -301 295 -234 234 -331 339 -541 581 -86 100 -289 356 -354 447 -30
42 -58 77 -61 77 -3 1 -37 -41 -75 -91z m3340 -10958 c-2 -50 -14 -168 -18
-181 -3 -8 -7 -27 -10 -44 -21 -137 -119 -341 -235 -485 -165 -207 -456 -380
-696 -415 -23 -3 -52 -8 -65 -11 -37 -7 -248 -7 -300 1 -350 52 -634 230 -829
519 -53 76 -144 270 -140 296 0 3 -5 19 -11 35 -13 35 -28 110 -35 175 -12
108 -13 129 -7 134 3 3 532 5 1176 4 l1171 -3 -1 -25z m-5269 -3010 c271 -44
509 -166 705 -360 105 -104 133 -139 198 -242 78 -125 150 -306 168 -423 3
-22 8 -43 9 -46 7 -10 18 -164 17 -236 -2 -345 -158 -691 -419 -933 -84 -77
-208 -164 -288 -202 -27 -12 -52 -25 -55 -28 -20 -20 -239 -85 -337 -100 -411
-63 -822 71 -1117 365 -199 198 -329 453 -369 725 -14 91 -15 333 -3 390 3 14
13 59 22 100 27 126 81 257 152 375 208 344 583 585 967 621 39 4 71 8 73 9 7
6 215 -5 277 -15z"/>
</g>
</svg>
