<?xml version="1.0" encoding="utf-8"?>
<!-- Generator: Adobe Illustrator 19.2.1, SVG Export Plug-In . SVG Version: 6.00 Build 0)  -->
<svg version="1.1" id="Layer_1" xmlns="http://www.w3.org/2000/svg" xmlns:xlink="http://www.w3.org/1999/xlink" x="0px" y="0px"
	 viewBox="0 0 230.7 91.2" enable-background="new 0 0 230.7 91.2" xml:space="preserve">
<g>
	<g>
		<path fill="#C3002F" d="M12.002,73.619h4.058c0.533,0,1.039,0.052,1.518,0.155c0.479,0.104,0.898,0.277,1.259,0.519
			c0.36,0.242,0.647,0.568,0.859,0.977c0.212,0.41,0.318,0.921,0.318,1.533c0,0.741-0.193,1.37-0.578,1.888
			c-0.385,0.518-0.948,0.847-1.688,0.985l2.666,4.428h-2.769l-2.192-4.191h-1.14v4.191h-2.31V73.619z M14.312,77.959h1.363
			c0.207,0,0.427-0.008,0.659-0.022c0.232-0.015,0.442-0.059,0.629-0.133c0.187-0.074,0.343-0.19,0.466-0.348
			c0.123-0.158,0.185-0.38,0.185-0.666c0-0.267-0.054-0.479-0.163-0.637c-0.109-0.158-0.247-0.279-0.415-0.363
			c-0.168-0.084-0.361-0.141-0.578-0.17c-0.217-0.03-0.429-0.045-0.637-0.045h-1.511V77.959z"/>
		<path fill="#C3002F" d="M22,73.619h7.124v2.133H24.31v1.955h4.547v2.133H24.31v2.133h5.08v2.133H22V73.619z"/>
		<path fill="#C3002F" d="M35.1,73.619h1.91l4.562,10.486h-2.607l-0.903-2.222H33.99l-0.874,2.222h-2.547L35.1,73.619z
			 M35.989,76.67l-1.274,3.258h2.562L35.989,76.67z"/>
		<path fill="#C3002F" d="M42.772,73.619h3.466c0.839,0,1.637,0.094,2.392,0.281c0.755,0.188,1.414,0.491,1.977,0.911
			c0.563,0.42,1.009,0.965,1.34,1.636c0.331,0.672,0.496,1.486,0.496,2.444c0,0.849-0.161,1.597-0.481,2.244
			c-0.321,0.647-0.753,1.19-1.296,1.629c-0.543,0.439-1.17,0.773-1.881,1c-0.711,0.227-1.456,0.34-2.236,0.34h-3.776V73.619z
			 M45.082,81.972h1.2c0.533,0,1.029-0.054,1.488-0.163c0.459-0.108,0.856-0.289,1.192-0.541c0.336-0.252,0.6-0.582,0.792-0.992
			c0.193-0.409,0.289-0.911,0.289-1.503c0-0.513-0.096-0.96-0.289-1.34c-0.193-0.38-0.452-0.694-0.778-0.94
			c-0.326-0.247-0.709-0.432-1.148-0.555c-0.439-0.124-0.901-0.185-1.385-0.185h-1.363V81.972z"/>
		<path fill="#C3002F" d="M55.881,79.632l-3.939-6.013h2.873l2.221,3.925l2.355-3.925h2.74l-3.939,6.013v4.473h-2.31V79.632z"/>
		<path fill="#C3002F" d="M68.262,73.619h7.035v2.133h-4.724v2.133h4.369v2.133h-4.369v4.088h-2.31V73.619z"/>
		<path fill="#C3002F" d="M76.448,78.862c0-0.839,0.141-1.599,0.422-2.281c0.281-0.681,0.674-1.261,1.177-1.74
			c0.504-0.479,1.101-0.846,1.792-1.103c0.691-0.257,1.446-0.385,2.266-0.385c0.819,0,1.575,0.128,2.266,0.385
			c0.691,0.257,1.288,0.624,1.792,1.103c0.503,0.479,0.896,1.059,1.177,1.74c0.281,0.681,0.422,1.441,0.422,2.281
			c0,0.839-0.141,1.6-0.422,2.281c-0.281,0.681-0.674,1.261-1.177,1.74c-0.504,0.479-1.101,0.847-1.792,1.103
			c-0.691,0.256-1.447,0.385-2.266,0.385c-0.82,0-1.575-0.129-2.266-0.385c-0.691-0.257-1.288-0.624-1.792-1.103
			c-0.503-0.479-0.896-1.059-1.177-1.74C76.589,80.462,76.448,79.702,76.448,78.862z M78.848,78.862
			c0,0.494,0.076,0.946,0.229,1.355c0.153,0.41,0.373,0.765,0.659,1.066c0.286,0.301,0.629,0.535,1.029,0.703
			c0.4,0.168,0.847,0.252,1.34,0.252c0.494,0,0.941-0.084,1.34-0.252c0.4-0.168,0.743-0.402,1.029-0.703
			c0.286-0.301,0.506-0.657,0.659-1.066c0.153-0.41,0.229-0.861,0.229-1.355c0-0.484-0.077-0.933-0.229-1.348
			c-0.153-0.415-0.373-0.772-0.659-1.074c-0.286-0.301-0.629-0.535-1.029-0.704c-0.4-0.168-0.847-0.252-1.34-0.252
			c-0.494,0-0.94,0.084-1.34,0.252c-0.4,0.168-0.743,0.403-1.029,0.704c-0.287,0.301-0.506,0.659-0.659,1.074
			C78.924,77.929,78.848,78.379,78.848,78.862z"/>
		<path fill="#C3002F" d="M89.319,73.619h4.058c0.533,0,1.039,0.052,1.518,0.155c0.479,0.104,0.898,0.277,1.259,0.519
			c0.36,0.242,0.647,0.568,0.859,0.977c0.212,0.41,0.318,0.921,0.318,1.533c0,0.741-0.193,1.37-0.578,1.888
			c-0.385,0.518-0.948,0.847-1.688,0.985l2.666,4.428h-2.769l-2.192-4.191h-1.14v4.191h-2.31V73.619z M91.629,77.959h1.363
			c0.207,0,0.427-0.008,0.659-0.022c0.232-0.015,0.442-0.059,0.629-0.133c0.187-0.074,0.343-0.19,0.466-0.348
			c0.123-0.158,0.185-0.38,0.185-0.666c0-0.267-0.054-0.479-0.163-0.637c-0.109-0.158-0.247-0.279-0.415-0.363
			c-0.168-0.084-0.361-0.141-0.578-0.17c-0.217-0.03-0.429-0.045-0.637-0.045h-1.511V77.959z"/>
		<path fill="#C3002F" d="M106.217,75.663h-2.992v-2.044h8.294v2.044h-2.992v8.442h-2.31V75.663z"/>
		<path fill="#C3002F" d="M112.893,73.619h2.31v3.91h4.487v-3.91h2.31v10.486h-2.31v-4.532h-4.487v4.532h-2.31V73.619z"/>
		<path fill="#C3002F" d="M123.839,73.619h7.124v2.133h-4.813v1.955h4.546v2.133h-4.546v2.133h5.08v2.133h-7.39V73.619z"/>
		<path fill="#C3002F" d="M137.257,73.619h2.518l1.673,6.724h0.03l2.192-6.724h2.147l2.177,6.901h0.03l1.762-6.901h2.34
			l-3.066,10.486h-2.059l-2.31-7.257h-0.03l-2.31,7.257h-1.984L137.257,73.619z"/>
		<path fill="#C3002F" d="M152.346,78.862c0-0.839,0.141-1.599,0.422-2.281c0.281-0.681,0.674-1.261,1.178-1.74
			c0.503-0.479,1.101-0.846,1.792-1.103c0.691-0.257,1.446-0.385,2.266-0.385c0.82,0,1.575,0.128,2.266,0.385
			c0.691,0.257,1.289,0.624,1.792,1.103c0.503,0.479,0.896,1.059,1.177,1.74c0.281,0.681,0.422,1.441,0.422,2.281
			c0,0.839-0.141,1.6-0.422,2.281c-0.281,0.681-0.674,1.261-1.177,1.74c-0.503,0.479-1.101,0.847-1.792,1.103
			c-0.691,0.256-1.446,0.385-2.266,0.385c-0.82,0-1.575-0.129-2.266-0.385c-0.691-0.257-1.288-0.624-1.792-1.103
			c-0.504-0.479-0.896-1.059-1.178-1.74C152.487,80.462,152.346,79.702,152.346,78.862z M154.745,78.862
			c0,0.494,0.076,0.946,0.23,1.355c0.153,0.41,0.372,0.765,0.659,1.066c0.286,0.301,0.629,0.535,1.029,0.703
			c0.4,0.168,0.846,0.252,1.34,0.252c0.494,0,0.94-0.084,1.34-0.252c0.4-0.168,0.743-0.402,1.03-0.703
			c0.286-0.301,0.506-0.657,0.659-1.066c0.153-0.41,0.23-0.861,0.23-1.355c0-0.484-0.077-0.933-0.23-1.348
			c-0.153-0.415-0.373-0.772-0.659-1.074c-0.287-0.301-0.629-0.535-1.03-0.704c-0.4-0.168-0.847-0.252-1.34-0.252
			c-0.494,0-0.94,0.084-1.34,0.252c-0.4,0.168-0.743,0.403-1.029,0.704c-0.287,0.301-0.506,0.659-0.659,1.074
			C154.822,77.929,154.745,78.379,154.745,78.862z"/>
		<path fill="#C3002F" d="M165.216,73.619h4.058c0.533,0,1.039,0.052,1.518,0.155c0.479,0.104,0.898,0.277,1.259,0.519
			c0.36,0.242,0.646,0.568,0.859,0.977c0.212,0.41,0.318,0.921,0.318,1.533c0,0.741-0.193,1.37-0.578,1.888
			c-0.385,0.518-0.948,0.847-1.688,0.985l2.666,4.428h-2.769l-2.192-4.191h-1.14v4.191h-2.31V73.619z M167.527,77.959h1.363
			c0.207,0,0.427-0.008,0.659-0.022c0.232-0.015,0.442-0.059,0.629-0.133c0.187-0.074,0.343-0.19,0.466-0.348
			c0.123-0.158,0.185-0.38,0.185-0.666c0-0.267-0.055-0.479-0.163-0.637c-0.109-0.158-0.247-0.279-0.415-0.363
			c-0.168-0.084-0.361-0.141-0.578-0.17c-0.217-0.03-0.43-0.045-0.637-0.045h-1.51V77.959z"/>
		<path fill="#C3002F" d="M175.214,73.619h2.31v4.354l4.072-4.354h3.021l-4.665,4.872l5.065,5.613h-3.229l-4.265-4.976v4.976h-2.31
			V73.619z"/>
		<path fill="#C3002F" d="M186.212,73.619h3.466c0.839,0,1.636,0.094,2.392,0.281c0.755,0.188,1.414,0.491,1.977,0.911
			c0.563,0.42,1.009,0.965,1.341,1.636c0.331,0.672,0.496,1.486,0.496,2.444c0,0.849-0.161,1.597-0.481,2.244
			c-0.321,0.647-0.753,1.19-1.296,1.629c-0.543,0.439-1.17,0.773-1.881,1c-0.711,0.227-1.457,0.34-2.236,0.34h-3.777V73.619z
			 M188.522,81.972h1.2c0.533,0,1.029-0.054,1.488-0.163c0.459-0.108,0.856-0.289,1.192-0.541c0.336-0.252,0.6-0.582,0.792-0.992
			c0.193-0.409,0.289-0.911,0.289-1.503c0-0.513-0.096-0.96-0.289-1.34c-0.193-0.38-0.452-0.694-0.777-0.94
			c-0.326-0.247-0.709-0.432-1.148-0.555c-0.439-0.124-0.901-0.185-1.385-0.185h-1.363V81.972z"/>
		<path fill="#C3002F" d="M200.297,73.619h1.911l4.562,10.486h-2.607l-0.903-2.222h-4.073l-0.874,2.222h-2.547L200.297,73.619z
			 M201.185,76.67l-1.274,3.258h2.562L201.185,76.67z"/>
		<path fill="#C3002F" d="M208.536,79.632l-3.939-6.013h2.873l2.222,3.925l2.355-3.925h2.74l-3.94,6.013v4.473h-2.31V79.632z"/>
	</g>
	<g>
		<path fill="#022169" d="M196.212,60.18c0-2.684,2.177-4.663,4.748-4.663c2.55,0,4.725,1.978,4.725,4.663
			c0,2.711-2.175,4.689-4.725,4.689C198.389,64.869,196.212,62.891,196.212,60.18 M200.96,64.085c2.116,0,3.785-1.653,3.785-3.905
			c0-2.214-1.669-3.884-3.785-3.884c-2.138,0-3.812,1.67-3.812,3.884C197.148,62.432,198.822,64.085,200.96,64.085 M199.973,62.891
			h-0.818v-5.395h2.052c1.277,0,1.909,0.47,1.909,1.534c0,0.963-0.61,1.381-1.399,1.482l1.536,2.379h-0.919l-1.421-2.342h-0.94
			V62.891z M200.952,59.857c0.691,0,1.305-0.047,1.305-0.877c0-0.669-0.601-0.792-1.174-0.792h-1.11v1.669H200.952z"/>
		<path fill="#022169" d="M55.932,36.253c-3.563-2.451-5.504-3.823-10.223-3.823c-5.737,0-10.392,5.092-10.392,11.372
			c0,6.282,4.655,11.37,10.392,11.37c4.514,0,5.635-0.436,10.423-3.666v11.292c-3.069,1.543-6.717,2.423-10.423,2.423
			c-12.262,0-22.203-9.592-22.203-21.419c0-11.831,9.941-21.414,22.203-21.414c3.676,0,7.169,0.86,10.223,2.381V36.253z"/>
		<rect x="59.644" y="23" fill="#022169" width="11.133" height="41.402"/>
		<path fill="#022169" d="M65.212,20.832c3.481,0,6.297-2.822,6.297-6.303c0-3.476-2.816-6.299-6.297-6.299
			c-3.479,0-6.302,2.822-6.302,6.299C58.909,18.01,61.733,20.832,65.212,20.832"/>
		<path fill="#022169" d="M187.843,39.099c-1.481-0.601-5.599-1.826-6.277-2.104c-5.38-2.204-3.421-6.311,0.564-6.311
			c2.948,0,5.232,1.223,7.235,2.561v-9.841c-3.895-1.185-5.902-1.628-9.131-1.628c-8.672,0-13.128,6.34-13.149,12.735
			c-0.011,4.496,3.476,9.433,7.547,10.934c3.586,1.319,4.125,1.537,6.271,2.275c4.281,1.478,4.295,7.574-1.559,7.574
			c-1.893,0-6.591-0.557-9.375-6.574L153.477,6.9l-21.019,55.54V32.577h8.691V23h-35.843v24.685L86.262,23.02V23H75.13v41.402
			h11.131V39.27l19.352,25.131h10.83V32.577h4.882v31.824h22.238l2.569-8.064h12.432l-2.961-8.683h-6.691l4.564-13.474l6.155,17.103
			c3.896,10.469,11.248,14.085,19.487,14.085c8.242,0,16.592-4.839,16.592-14.749C195.712,43.531,191.556,40.602,187.843,39.099"/>
	</g>
	<path fill="#C3002F" d="M215.813,75.55c0-1.16,0.941-2.015,2.052-2.015c1.102,0,2.042,0.855,2.042,2.015
		c0,1.172-0.94,2.026-2.042,2.026C216.754,77.576,215.813,76.721,215.813,75.55 M217.865,77.237c0.914,0,1.636-0.714,1.636-1.687
		c0-0.957-0.721-1.679-1.636-1.679c-0.924,0-1.647,0.722-1.647,1.679C216.218,76.523,216.941,77.237,217.865,77.237 M217.439,76.721
		h-0.353V74.39h0.887c0.552,0,0.825,0.203,0.825,0.663c0,0.416-0.263,0.597-0.605,0.64l0.664,1.028h-0.397l-0.614-1.012h-0.406
		V76.721z M217.862,75.41c0.299,0,0.564-0.021,0.564-0.379c0-0.289-0.26-0.342-0.507-0.342h-0.48v0.721H217.862z"/>
</g>
</svg>
