<?xml version="1.0" encoding="utf-8"?>
<!-- Generator: Adobe Illustrator 21.1.0, SVG Export Plug-In . SVG Version: 6.00 Build 0)  -->
<svg version="1.1" id="Layer_1" xmlns="http://www.w3.org/2000/svg" xmlns:xlink="http://www.w3.org/1999/xlink" x="0px" y="0px"
	 viewBox="0 0 248 49.2" style="enable-background:new 0 0 248 49.2;" xml:space="preserve">
<style type="text/css">
	.st0{fill:#005DA9;}
	.st1{fill:#58595B;}
</style>
<title>2017-Fisher-Scientific-Logo</title>
<g>
	<polygon class="st0" points="30.1,6.7 15.6,6.7 11.5,10.9 11.5,15.8 10.3,15.8 7.4,20.5 11.5,20.5 11.5,33.6 16.4,28.8 16.4,20.5 
		22.2,20.5 25,15.8 16.4,15.8 16.4,11.5 27.4,11.5 	"/>
	<path class="st0" d="M18.8,37.6c10.4,0,18.8-8.4,18.8-18.8S29.2,0,18.8,0S0,8.4,0,18.8S8.4,37.6,18.8,37.6L18.8,37.6z M2.3,18.8
		c0-9.1,7.4-16.5,16.5-16.5s16.5,7.4,16.5,16.5s-7.4,16.5-16.5,16.5S2.3,27.9,2.3,18.8L2.3,18.8z"/>
	<path class="st0" d="M77.3,31.9h3.9V21.4c0-2.6,1.7-4.7,4.3-4.7c2.3,0,3.5,1.2,3.5,4v11.3h3.9V19.7c0-4-2.5-6.1-6.3-6.1
		c-2.4,0-4.3,1.2-5.3,2.8h-0.1V7.1l-3.9,2.1L77.3,31.9L77.3,31.9z"/>
	<path class="st0" d="M42.9,17h2.9v15h3.9V17h2.5l0.9-2.9h-3.4v-1.8c0-1.5,0.9-1.8,2-1.8c0.8,0,1.3,0.1,1.8,0.2V7.4
		c-0.7-0.2-1.5-0.2-2.8-0.2c-2.6,0-5,0.8-5,5.3V14h-2.9V17H42.9z"/>
	<polygon class="st0" points="54.9,31.9 58.9,31.9 58.9,14 54.9,14 	"/>
	<path class="st0" d="M60.1,26.2c0.1,4.2,3.5,6.2,7.9,6.2c3.7,0,8-1.5,8-5.9c0-3.6-2.9-4.6-5.8-5.2c-2.9-0.7-5.9-0.9-5.9-2.8
		c0-1.5,2.1-1.8,3.3-1.8c1.7,0,3.3,0.5,3.6,2.4h4.1c-0.4-4-3.8-5.5-7.5-5.5c-3.3,0-7.5,1.2-7.5,5.1c0,3.6,2.8,4.7,5.8,5.3
		c2.8,0.7,5.8,0.9,5.9,2.9s-2.5,2.4-4,2.4c-2.1,0-3.8-0.9-4-3.2h-3.9V26.2z"/>
	<path class="st0" d="M102.9,13.5c-5.3,0-8.7,4.3-8.7,9.5c0,5.5,3.2,9.5,8.8,9.5c3.9,0,7.3-2.2,8.1-6.1h-3.7c-0.7,2-2.1,2.9-4.3,2.9
		c-3.3,0-4.8-2.5-4.8-5.3h13.1C112,18.6,108.6,13.5,102.9,13.5L102.9,13.5z M107.5,21.4h-9.2c0.1-2.7,2-4.8,4.7-4.8
		C105.6,16.6,107.2,18.9,107.5,21.4L107.5,21.4z"/>
	<path class="st0" d="M112.7,31.9h3.9v-8.5c0-3.9,2.2-6.1,4.9-6.1c0.5,0,1.2,0.1,1.7,0.2v-3.8c-0.3,0-0.5-0.1-1.5-0.1
		c-2.4,0-4.8,2.1-5.2,3.9h-0.1v-3.5h-3.7L112.7,31.9L112.7,31.9z"/>
	<polygon class="st0" points="60.1,7.2 58.9,10.9 54.9,10.9 56.1,7.2 	"/>
	<polygon class="st1" points="82.1,46.6 83.9,46.6 83.9,40.6 86.2,40.6 86.2,39.3 79.9,39.3 79.9,40.6 82.1,40.6 	"/>
	<path class="st1" d="M86.7,46.6h1.5v-2.8c0-1.1,0.3-1.5,1.2-1.5c0.8,0,1,0.4,1,1.3v3h1.5v-3.3c0-1.3-0.4-2.2-2.1-2.2
		c-0.5,0-1.2,0.3-1.6,0.9l0,0v-2.8h-1.5V46.6L86.7,46.6z"/>
	<path class="st1" d="M98.3,44.3c0.1-1.6-0.8-3.2-2.7-3.2c-1.7,0-2.8,1.2-2.8,2.8c0,1.6,1.1,2.8,2.8,2.8c1.3,0,2.2-0.5,2.6-1.8h-1.3
		c-0.1,0.3-0.5,0.7-1.2,0.7c-0.9,0-1.3-0.4-1.4-1.3L98.3,44.3L98.3,44.3z M96.8,43.5h-2.5c0-0.4,0.3-1.1,1.3-1.1
		C96.3,42.3,96.6,42.7,96.8,43.5L96.8,43.5z"/>
	<path class="st1" d="M99.1,46.6h1.5v-2.4c0-1,0.4-1.7,1.5-1.7c0.2,0,0.4,0,0.5,0v-1.4c-0.1,0-0.2,0-0.3,0c-0.8,0-1.5,0.4-1.7,1.1
		l0,0v-0.9h-1.4v5.3H99.1z"/>
	<path class="st1" d="M103.2,46.6h1.5v-3c0-1.1,0.8-1.2,1-1.2c1,0,1,0.8,1,1.3v3h1.5v-2.9c0-0.7,0.1-1.3,1-1.3c0.9,0,1,0.5,1,1.3v3
		h1.5v-3.6c0-1.4-0.9-2-2.1-2c-0.8,0-1.3,0.4-1.6,0.9c-0.3-0.7-1-0.9-1.6-0.9c-0.8,0-1.3,0.3-1.7,0.9l0,0v-0.9h-1.4V46.6L103.2,46.6
		z"/>
	<path class="st1" d="M118.2,44c0-1.7-1.1-2.8-2.9-2.8c-1.7,0-2.8,1.1-2.8,2.8c0,1.7,1.1,2.8,2.8,2.8C117,46.8,118.2,45.6,118.2,44
		L118.2,44z M116.7,44c0,0.9-0.3,1.7-1.3,1.7c-1,0-1.3-0.9-1.3-1.7c0-0.9,0.3-1.7,1.3-1.7S116.7,43.1,116.7,44L116.7,44z"/>
	<polygon class="st1" points="122.1,46.6 123.8,46.6 123.8,43.6 127,43.6 127,42.4 123.8,42.4 123.8,40.6 127.5,40.6 127.5,39.3 
		122.1,39.3 	"/>
	<polygon class="st1" points="128.2,46.6 129.7,46.6 129.7,41.3 128.2,41.3 	"/>
	<path class="st1" d="M130.6,44.9c0.1,1.4,1.3,1.8,2.6,1.8c1.3,0,2.5-0.4,2.5-1.8c0-1-0.9-1.3-1.7-1.5s-1.7-0.2-1.7-0.8
		c0-0.4,0.5-0.5,0.9-0.5c0.5,0,1,0.1,1.1,0.8h1.4c-0.1-1.3-1.2-1.7-2.5-1.7c-1.2,0-2.4,0.3-2.4,1.7c0,1,0.9,1.2,1.7,1.4
		c1.1,0.2,1.7,0.4,1.7,0.9c0,0.5-0.5,0.7-1,0.7c-0.7,0-1.2-0.2-1.2-0.9L130.6,44.9L130.6,44.9z"/>
	<path class="st1" d="M136.6,46.6h1.5v-2.8c0-1.1,0.3-1.5,1.2-1.5c0.8,0,1,0.4,1,1.3v3h1.5v-3.3c0-1.3-0.4-2.2-2.1-2.2
		c-0.5,0-1.2,0.3-1.6,0.9l0,0v-2.8h-1.5L136.6,46.6L136.6,46.6z"/>
	<path class="st1" d="M148.1,44.3c0.1-1.6-0.8-3.2-2.7-3.2c-1.7,0-2.8,1.2-2.8,2.8c0,1.6,1.1,2.8,2.8,2.8c1.3,0,2.2-0.5,2.6-1.8
		h-1.3c-0.1,0.3-0.5,0.7-1.2,0.7c-0.9,0-1.3-0.4-1.4-1.3L148.1,44.3L148.1,44.3z M146.6,43.5h-2.5c0-0.4,0.3-1.1,1.3-1.1
		C146,42.3,146.4,42.7,146.6,43.5L146.6,43.5z"/>
	<path class="st1" d="M148.9,46.6h1.5v-2.4c0-1,0.4-1.7,1.5-1.7c0.2,0,0.4,0,0.5,0v-1.4c-0.1,0-0.2,0-0.3,0c-0.8,0-1.5,0.4-1.7,1.1
		l0,0v-0.9h-1.5V46.6L148.9,46.6z"/>
	<path class="st1" d="M155.5,44.2c0,1.8,1.5,2.6,3.3,2.6c2.1,0,3.2-1,3.2-2.4c0-1.6-1.7-2.1-2.3-2.2c-2-0.4-2.3-0.5-2.3-1.1
		c0-0.7,0.7-0.9,1.2-0.9c0.8,0,1.4,0.2,1.5,1.1h1.6c0-1.7-1.5-2.4-3-2.4c-1.4,0-2.8,0.8-2.8,2.3c0,1.4,1.2,1.8,2.3,2.1
		c1.1,0.3,2.3,0.4,2.3,1.2c0,0.8-0.9,0.9-1.5,0.9c-0.9,0-1.7-0.4-1.7-1.4h-1.6V44.2z"/>
	<path class="st1" d="M168,43.2c-0.1-1.4-1.3-2.1-2.6-2.1c-1.8,0-2.8,1.2-2.8,2.9c0,1.6,1.1,2.7,2.8,2.7c1.4,0,2.5-0.8,2.7-2.2h-1.5
		c-0.1,0.7-0.5,1.1-1.2,1.1c-1,0-1.3-0.9-1.3-1.6c0-0.8,0.3-1.7,1.3-1.7c0.7,0,1.1,0.3,1.1,0.9H168L168,43.2z"/>
	<polygon class="st1" points="168.9,46.6 170.4,46.6 170.4,41.3 168.9,41.3 	"/>
	<path class="st1" d="M168.9,40.5"/>
	<path class="st1" d="M176.7,44.3c0.1-1.6-0.8-3.2-2.7-3.2c-1.7,0-2.8,1.2-2.8,2.8c0,1.6,1.1,2.8,2.8,2.8c1.3,0,2.2-0.5,2.6-1.8
		h-1.3c-0.1,0.3-0.5,0.7-1.2,0.7c-0.9,0-1.3-0.4-1.4-1.3L176.7,44.3L176.7,44.3z M175.2,43.5h-2.5c0-0.4,0.3-1.1,1.3-1.1
		C174.7,42.3,175.1,42.7,175.2,43.5L175.2,43.5z"/>
	<path class="st1" d="M177.5,46.6h1.5v-2.8c0-1.1,0.3-1.5,1.2-1.5c0.8,0,1,0.4,1,1.3v3h1.5v-3.3c0-1.3-0.4-2.2-2.1-2.2
		c-0.7,0-1.3,0.3-1.7,0.9l0,0v-0.8h-1.4L177.5,46.6L177.5,46.6z"/>
	<path class="st1" d="M185.7,39.8h-1.5v1.5h-1v1h1v3.2c0,1.1,0.9,1.3,1.7,1.3c0.3,0,0.7,0,0.9,0v-1.2c-0.1,0-0.3,0-0.4,0
		c-0.5,0-0.7-0.1-0.7-0.7v-2.6h1.1v-1h-1.1L185.7,39.8L185.7,39.8z"/>
	<polygon class="st1" points="187.5,46.6 189.1,46.6 189.1,41.3 187.5,41.3 	"/>
	<path class="st1" d="M189.1,40.5"/>
	<path class="st1" d="M194,40.5"/>
	<polygon class="st1" points="194,46.6 195.5,46.6 195.5,41.3 194,41.3 	"/>
	<path class="st1" d="M190.5,46.6h1.5v-4.3h1.1v-1H192V41c0-0.4,0.2-0.7,0.5-0.7c0.2,0,0.3,0,0.5,0v-1.1c-0.2,0-0.5,0-0.8,0
		c-1.2,0-1.8,0.7-1.8,1.6v0.4h-0.9v1h0.9V46.6L190.5,46.6z"/>
	<path class="st1" d="M201.7,43.2c-0.1-1.4-1.3-2.1-2.6-2.1c-1.8,0-2.8,1.2-2.8,2.9c0,1.6,1.1,2.7,2.8,2.7c1.4,0,2.5-0.8,2.7-2.2
		h-1.5c-0.1,0.7-0.5,1.1-1.2,1.1c-1,0-1.3-0.9-1.3-1.6c0-0.8,0.3-1.7,1.3-1.7c0.7,0,1.1,0.3,1.1,0.9H201.7L201.7,43.2z"/>
	<path class="st1" d="M185.7,39.7"/>
	<polygon class="st1" points="128.2,40.6 129.7,40.6 130.3,39.3 128.8,39.3 	"/>
	<polygon class="st1" points="168.9,40.6 170.4,40.6 170.8,39.3 169.3,39.3 	"/>
	<polygon class="st1" points="187.5,40.6 189,40.6 189.5,39.3 188,39.3 	"/>
	<polygon class="st1" points="194,40.6 195.5,40.6 195.9,39.3 194.5,39.3 	"/>
	<path class="st1" d="M51.1,43.9c0-1.5-0.9-2.9-2.6-2.9c-0.8,0-1.5,0.2-1.7,0.9l0,0v-0.8h-0.9v7.7h0.9V46l0,0
		c0.4,0.7,1.2,0.9,1.8,0.9C50.3,46.8,51.1,45.4,51.1,43.9L51.1,43.9z M50.1,43.8c0,1.1-0.4,2.2-1.6,2.2c-1.3,0-1.7-1-1.7-2.1
		c0-1.1,0.4-2.1,1.7-2.1C49.7,41.8,50.1,42.8,50.1,43.8L50.1,43.8z"/>
	<path class="st1" d="M57,46.6v-0.8c-0.1,0-0.2,0-0.3,0c-0.3,0-0.3-0.2-0.3-0.7v-2.8c0-1.3-1.1-1.5-2.1-1.5c-1.2,0-2.3,0.4-2.4,1.8
		h0.9c0-0.9,0.7-1.1,1.4-1.1c0.5,0,1.2,0.1,1.2,1c0,0.7-0.9,0.7-1.8,0.9c-1,0.2-1.8,0.4-1.8,1.7c0,1.1,0.9,1.5,1.8,1.5
		c0.8,0,1.4-0.2,2-0.9c0,0.7,0.3,0.9,0.8,0.9C56.6,46.8,56.8,46.7,57,46.6L57,46.6z M55.5,44.8c0,0.5-0.5,1.3-1.7,1.3
		c-0.5,0-1.1-0.2-1.1-0.9c0-0.7,0.5-0.9,1.1-1c0.7-0.1,1.3-0.1,1.6-0.3v0.9H55.5z"/>
	<path class="st1" d="M57.7,46.6h1v-2.5c0-1.4,0.5-2.3,2.1-2.3v-1c-1,0-1.6,0.4-2.1,1.3l0,0V41h-0.9v5.7H57.7z"/>
	<path class="st1" d="M62.9,39.4H62v1.6h-1v0.8h1v3.6c0,1,0.3,1.2,1.3,1.2H64v-0.8h-0.4c-0.5,0-0.7-0.1-0.7-0.5v-3.5H64v-0.8h-1.1
		V39.4L62.9,39.4z"/>
	<path class="st1" d="M73.3,43.9c0-1.6-1-2.9-2.7-2.9c-1.7,0-2.7,1.3-2.7,2.9c0,1.6,1,2.9,2.7,2.9C72.4,46.8,73.3,45.5,73.3,43.9
		L73.3,43.9z M72.4,43.9c0,1.3-0.8,2.1-1.7,2.1c-1,0-1.7-0.8-1.7-2.1s0.8-2.1,1.7-2.1C71.6,41.8,72.4,42.5,72.4,43.9L72.4,43.9z"/>
	<path class="st1" d="M74.6,46.6h0.9v-4.8h1.1v-0.8h-1.1v-0.8c0-0.4,0.2-0.7,0.7-0.7c0.1,0,0.3,0,0.5,0.1V39c-0.2,0-0.4-0.1-0.5-0.1
		c-1,0-1.5,0.4-1.5,1.4v0.9h-1v0.8h1V46.6L74.6,46.6z"/>
	<path class="st1" d="M141.4,19.1c-0.1-3.9-3-5.8-6.6-5.8c-3.2,0-6.7,1.4-6.7,5.1c0,3,2.2,4,5,4.8l2.8,0.7c2,0.5,3.9,1.2,3.9,3.3
		c0,2.5-2.8,3.5-4.9,3.5c-2.9,0-5.1-1.5-5.3-4.5h-2.2c0.3,4.5,3.3,6.4,7.4,6.4c3.4,0,7.3-1.5,7.3-5.4c0-3.2-2.6-4.6-5.1-5l-2.9-0.7
		c-1.5-0.4-3.7-1.1-3.7-3c0-2.4,2.3-3.2,4.2-3.2c2.5,0,4.6,1.2,4.7,3.9h2.2V19.1z"/>
	<path class="st1" d="M158.4,19.6c-0.5-4.1-3.5-6.2-7.3-6.2c-5.5,0-8.5,4.3-8.5,9.6s3,9.6,8.5,9.6c4,0,6.8-2.6,7.4-7h-2.2
		c-0.3,3-2.5,5.1-5.2,5.1c-4.2,0-6.3-3.8-6.3-7.7s2.1-7.7,6.3-7.7c2.8,0,4.5,1.6,5.1,4.3H158.4L158.4,19.6z"/>
	<polygon class="st1" points="159.8,31.8 162,31.8 162,13.8 159.8,13.8 	"/>
	<path class="st1" d="M171.4,13.4c-5.8,0-8.1,4.8-8.1,9.6c0,5.1,2.4,9.6,8.1,9.6c4.6,0,7-2.4,7.8-6.4H177c-0.7,2.7-2.5,4.6-5.7,4.6
		c-4.2,0-5.9-3.9-6-7.1h13.9C179.5,18.4,177.2,13.4,171.4,13.4L171.4,13.4z M177.1,21.6h-11.6c0.3-3.3,2.4-6.4,6-6.4
		C174.9,15.2,177,18.3,177.1,21.6L177.1,21.6z"/>
	<path class="st1" d="M180.6,31.8h2.2V21.3c0.1-3.5,2.2-6.2,5.7-6.2c3.6,0,4.6,2.4,4.6,5.4v11.3h2.2V20.3c0-4.3-1.5-7-6.6-7
		c-2.5,0-5,1.5-5.8,3.6h-0.1v-3.2h-2.2v18H180.6z"/>
	<path class="st1" d="M198.7,10.4v3.5h-3.2v1.8h3.2v12.4c0,3,1,4,3.9,4c0.7,0,1.3-0.1,2-0.1v-1.8c-0.7,0.1-1.3,0.1-1.8,0.1
		c-1.5-0.1-1.7-1-1.7-2.4V15.6h3.7v-1.8H201V9.2L198.7,10.4L198.7,10.4z"/>
	<polygon class="st1" points="205.9,31.8 208.1,31.8 208.1,13.8 205.9,13.8 	"/>
	<polygon class="st1" points="219.5,31.8 221.8,31.8 221.8,13.8 219.5,13.8 	"/>
	<path class="st1" d="M212.4,31.8h2.2V15.6h3.6v-1.8h-3.6v-1.5c0-2,0-3.5,2.4-3.5c0.5,0,1,0.1,1.6,0.2v-2C218,7,217.4,7,216.8,7
		c-3.5,0-4.5,2.2-4.3,5.3v1.6h-3v1.8h3V31.8L212.4,31.8z"/>
	<path class="st1" d="M222.5,10.4"/>
	<path class="st1" d="M239.1,19.6c-0.5-4.1-3.5-6.2-7.3-6.2c-5.5,0-8.5,4.3-8.5,9.6s3,9.6,8.5,9.6c4,0,6.8-2.6,7.4-7H237
		c-0.3,3-2.5,5.1-5.2,5.1c-4.2,0-6.3-3.8-6.3-7.7s2.1-7.7,6.3-7.7c2.8,0,4.5,1.6,5.1,4.3H239.1L239.1,19.6z"/>
	<polygon class="st1" points="222.9,7 221.8,10.4 219.5,10.4 220.7,7 	"/>
	<polygon class="st1" points="209.2,7 208.1,10.4 205.9,10.4 207,7 	"/>
	<polygon class="st1" points="163.1,7 162,10.4 159.8,10.4 160.9,7 	"/>
</g>
</svg>
